# xmcd CD database file generated by OrangeCD 5.2
#
# Track frame offsets:
#	150
#	20925
#	50475
#
# Disc length: 947 seconds
#
# Revision: 1
# Processed by: cddbd v1.5.1PL0 Copyright (c) Steve Scherf et al.
# Submitted via: OrangeCD 5.2
#
DISCID=2403b103
DTITLE=Hitomi - Go To the Top
DYEAR=1900
DGENRE=Rock
TTITLE0=Original Mix
TTITLE1=Club Mix
TTITLE2=Karaoke
EXTD=
EXTT0=
EXTT1=
EXTT2=
PLAYORDER=
